<svg width="18" height="18" viewBox="0 0 18 18" fill="none" xmlns="http://www.w3.org/2000/svg">
<mask id="mask0_64764_144" style="mask-type:luminance" maskUnits="userSpaceOnUse" x="0" y="0" width="18" height="18">
<path d="M18 0H0V18H18V0Z" fill="white"/>
</mask>
<g mask="url(#mask0_64764_144)">
<path d="M16.5001 8.30997V8.99997C16.4991 10.617 15.9752 12.191 15.0072 13.486C14.0392 14.782 12.6771 15.729 11.1271 16.188C9.57615 16.647 7.91815 16.591 6.40115 16.031C4.88415 15.47 3.58815 14.435 2.70815 13.078C1.82815 11.721 1.41015 10.116 1.51615 8.50199C1.62315 6.88799 2.24815 5.35196 3.29915 4.12296C4.35015 2.89296 5.77015 2.03697 7.34715 1.67997C8.92515 1.32397 10.5751 1.48699 12.0531 2.14499" stroke="#B5B7C3" stroke-width="2" stroke-linecap="round" stroke-linejoin="round"/>
<path d="M16.5 3L9 10.507L6.75 8.25702" stroke="#B5B7C3" stroke-width="2" stroke-linecap="round" stroke-linejoin="round"/>
</g>
</svg>
