<svg width="20" height="20" viewBox="0 0 20 20" fill="none" xmlns="http://www.w3.org/2000/svg">
<path d="M3.77539 2.55798C3.84959 2.56201 3.92232 2.58041 3.98926 2.61267C4.02283 2.62886 4.05441 2.64889 4.08398 2.67126L4.16602 2.74646L16.665 16.4965L16.666 16.4974C16.7167 16.5519 16.7564 16.6161 16.7822 16.6859C16.8079 16.7555 16.8194 16.8296 16.8164 16.9037C16.8133 16.978 16.7951 17.0512 16.7637 17.1185C16.7321 17.186 16.6879 17.2472 16.6328 17.2972C16.5777 17.3473 16.5125 17.3856 16.4424 17.4105C16.3724 17.4354 16.2978 17.4467 16.2236 17.4427C16.1494 17.4387 16.0767 17.4194 16.0098 17.3871C15.9428 17.3547 15.8824 17.3099 15.833 17.2543V17.2533L14.1143 15.3617L14.084 15.3285L14.043 15.347C12.7699 15.9092 11.3917 16.1958 10 16.1879L9.49512 16.1752C6.98635 16.055 4.70966 15.0365 2.88281 13.2103C1.42315 11.7505 0.765128 10.2947 0.736328 10.2299V10.2289C0.704425 10.157 0.6875 10.079 0.6875 10.0004C0.687565 9.9218 0.704408 9.84365 0.736328 9.77185C0.79094 9.64855 2.00502 6.98189 4.82324 5.25232L4.8877 5.21326L4.83691 5.15759L3.33398 3.5033L3.33301 3.50232C3.28256 3.44803 3.24352 3.38431 3.21777 3.31482C3.19198 3.24502 3.17952 3.17042 3.18262 3.09607C3.18572 3.02171 3.20383 2.94864 3.23535 2.88123C3.26682 2.81395 3.31129 2.75349 3.36621 2.70349C3.4213 2.65343 3.48651 2.61419 3.55664 2.58923C3.62666 2.56437 3.7012 2.55399 3.77539 2.55798ZM5.62109 6.08826C3.44321 7.34593 2.26721 9.27992 1.89844 9.97107L1.88184 10.0004L1.89844 10.0297C2.38269 10.9186 2.99295 11.7331 3.71094 12.4467H3.71191C5.46241 14.1813 7.57857 15.0629 10 15.0629C11.0954 15.0689 12.1823 14.8703 13.2051 14.4779L13.291 14.4447L13.2295 14.3773L12.0781 13.1117L12.043 13.0726L11.998 13.101C11.2648 13.569 10.3896 13.7626 9.52734 13.6478C8.66524 13.533 7.8713 13.1174 7.28613 12.474C6.7009 11.8305 6.36175 11.0005 6.3291 10.1312C6.29652 9.2622 6.57233 8.40952 7.10742 7.724L7.14062 7.68201L7.10449 7.64294L5.69824 6.09998L5.66504 6.06287L5.62109 6.08826ZM10 3.81287C12.7081 3.81287 15.1685 4.84174 17.1172 6.79041C18.5772 8.2505 19.2351 9.70752 19.2637 9.77185C19.2956 9.84365 19.3124 9.9218 19.3125 10.0004C19.3125 10.0732 19.296 10.1449 19.2686 10.2123L19.2617 10.2289C19.2306 10.2986 18.4436 12.0425 16.6709 13.6302H16.6699C16.6151 13.6809 16.5506 13.7209 16.4805 13.7465C16.4105 13.7719 16.3361 13.7832 16.2617 13.7797C16.1873 13.7761 16.1142 13.7579 16.0469 13.726C15.9796 13.6939 15.9189 13.6487 15.8691 13.5931C15.8194 13.5375 15.7813 13.4722 15.7568 13.4017C15.7324 13.3312 15.7218 13.2565 15.7266 13.182C15.7313 13.1076 15.7511 13.0349 15.7842 12.9681C15.8173 12.9013 15.8635 12.8412 15.9199 12.7924L15.9209 12.7914C16.8003 12.0013 17.539 11.0673 18.1055 10.0297L18.1221 10.0004L18.1055 9.97009C17.6201 9.08027 17.0077 8.26596 16.2881 7.55212C14.6469 5.92718 12.6845 5.05071 10.4502 4.94763L10 4.93787C9.48999 4.93725 8.98078 4.97813 8.47754 5.06091H8.47656C8.40339 5.07385 8.32838 5.07224 8.25586 5.05603C8.18337 5.03981 8.11438 5.01002 8.05371 4.96716C7.99304 4.9243 7.94185 4.86894 7.90234 4.80603C7.86291 4.74317 7.83646 4.67316 7.82422 4.59998C7.81196 4.5267 7.81417 4.45162 7.83105 4.37927C7.84795 4.30698 7.87848 4.23834 7.92188 4.1781C7.9653 4.11784 8.02072 4.06663 8.08398 4.02771C8.11552 4.00833 8.14905 3.99263 8.18359 3.97986L8.29102 3.95154C8.85572 3.8583 9.42765 3.81214 10 3.81287ZM7.85742 8.59509C7.54638 9.07011 7.40248 9.63552 7.44727 10.2015C7.49208 10.7675 7.72362 11.3029 8.10547 11.723C8.48724 12.143 8.99771 12.4243 9.55664 12.5228C10.1157 12.6213 10.6919 12.5312 11.1943 12.267L11.2666 12.2299L11.2119 12.1693L7.95605 8.58728L7.90234 8.52771L7.85742 8.59509ZM10.6914 6.3783C11.4746 6.53019 12.1879 6.93063 12.7246 7.52087C13.1944 8.03755 13.5067 8.67529 13.6289 9.35876L13.6699 9.65369C13.6838 9.80211 13.6381 9.95003 13.543 10.0648C13.4478 10.1797 13.3106 10.2521 13.1621 10.266H13.1094C12.9688 10.2666 12.8326 10.214 12.7285 10.1195C12.6245 10.0251 12.5599 9.89513 12.5469 9.75525C12.493 9.20479 12.2627 8.68597 11.8906 8.27673C11.5649 7.91853 11.1452 7.66034 10.6816 7.53064L10.4805 7.48279C10.3339 7.4548 10.204 7.36987 10.1201 7.24646C10.0365 7.12311 10.0053 6.97101 10.0332 6.82458C10.0613 6.67825 10.1463 6.549 10.2695 6.46521C10.393 6.38134 10.5448 6.35032 10.6914 6.3783Z" fill="#CDCFD7" stroke="#CDCFD7" stroke-width="0.125"/>
</svg>
