<svg width="162" height="30" viewBox="0 0 162 30" fill="none" xmlns="http://www.w3.org/2000/svg">
<mask id="mask0_64764_47" style="mask-type:luminance" maskUnits="userSpaceOnUse" x="0" y="0" width="162" height="30">
<path d="M162 0H0V30H162V0Z" fill="white"/>
</mask>
<g mask="url(#mask0_64764_47)">
<path d="M37.4634 0.380615C37.6702 0.380615 37.8687 0.462116 38.0155 0.607416C38.1624 0.752616 38.2459 0.949916 38.2477 1.15622V29.2173C38.2478 29.4236 38.1661 29.6216 38.0205 29.7682C37.875 29.9148 37.6773 29.998 37.4705 29.9999H33.6408C33.434 29.998 33.2363 29.9148 33.0907 29.7682C32.9452 29.6216 32.8635 29.4236 32.8635 29.2173V10.9635C32.562 11.2079 32.2511 11.4429 31.9308 11.6685C31.0193 12.3031 30.0937 12.8389 29.1963 13.3607C28.299 13.8824 27.7054 14.2913 26.9988 14.7073C25.676 15.4697 24.5242 16.4952 23.615 17.7201C22.7058 18.9451 22.0586 20.3434 21.7135 21.8283C21.6748 22.0012 21.578 22.1555 21.4392 22.2658C21.3003 22.3762 21.1279 22.4357 20.9504 22.4347H17.2973C17.1199 22.4357 16.9474 22.3762 16.8086 22.2658C16.6697 22.1555 16.5729 22.0012 16.5342 21.8283C16.1892 20.3415 15.5413 18.9415 14.6308 17.7152C13.7204 16.4889 12.5668 15.4627 11.2419 14.7003C10.5353 14.2843 9.8287 13.826 9.0444 13.3536C8.26 12.8812 7.2214 12.296 6.3099 11.6615C5.9895 11.4406 5.6786 11.2055 5.3772 10.9564V29.2173C5.3772 29.4236 5.2955 29.6216 5.1499 29.7682C5.0044 29.9148 4.8067 29.998 4.5999 29.9999H0.777201C0.570501 29.998 0.3728 29.9148 0.2272 29.7682C0.0816996 29.6216 0 29.4236 0 29.2173V1.16322C0 0.955716 0.0826001 0.756617 0.2297 0.609917C0.3768 0.463117 0.5763 0.380615 0.7843 0.380615H4.5646C4.7487 0.383215 4.926 0.450316 5.0655 0.570116C5.205 0.690016 5.2979 0.855016 5.3277 1.03632C5.5397 2.40412 6.3452 5.59802 9.2917 7.38182C10.0689 7.84012 10.8391 8.35482 11.687 8.85542C12.5349 9.35602 13.3616 9.81421 14.1671 10.3783C15.8121 11.4695 17.284 12.8003 18.5339 14.3266C18.6046 14.4161 18.6948 14.4884 18.7976 14.5381C18.9004 14.5878 19.0132 14.6137 19.1274 14.6137C19.2417 14.6137 19.3544 14.5878 19.4572 14.5381C19.56 14.4884 19.6502 14.4161 19.7209 14.3266C20.9682 12.7984 22.4377 11.4651 24.0806 10.3712C24.9214 9.80722 25.7976 9.29962 26.5678 8.84832C27.338 8.39712 28.2 7.84012 28.9561 7.38182C31.9096 5.62622 32.7151 2.44642 32.9271 1.03632C32.957 0.855016 33.0498 0.690016 33.1893 0.570116C33.3288 0.450316 33.5061 0.383215 33.6902 0.380615H37.4634Z" fill="#070E38"/>
<path d="M77.498 14.8061C77.498 22.9636 69.8171 29.6122 60.3699 29.6122C50.9228 29.6122 43.2422 22.9706 43.2422 14.8061C43.2422 6.6416 50.9228 0 60.3699 0C69.8171 0 77.498 6.6416 77.498 14.8061ZM60.3699 5.3796C53.8976 5.3796 48.6335 9.6099 48.6335 14.8061C48.6335 20.0024 53.8976 24.1974 60.3699 24.1974C66.8423 24.1974 72.113 19.9671 72.113 14.7779C72.113 9.5887 66.8423 5.3796 60.3699 5.3796Z" fill="#070E38"/>
<path d="M115.188 14.8061C115.188 22.9636 107.507 29.6122 98.0596 29.6122C88.6126 29.6122 80.9316 22.9706 80.9316 14.8061C80.9316 6.6416 88.6126 0 98.0596 0C107.507 0 115.188 6.6416 115.188 14.8061ZM98.0596 5.3796C91.5876 5.3796 86.3156 9.6099 86.3156 14.8061C86.3156 20.0024 91.5876 24.1974 98.0596 24.1974C104.532 24.1974 109.796 19.9671 109.796 14.7779C109.796 9.5887 104.511 5.3796 98.0596 5.3796Z" fill="#070E38"/>
<path d="M146.095 14.5875V0.7756C146.095 0.6737 146.116 0.5729 146.155 0.4788C146.194 0.3847 146.251 0.2992 146.323 0.2272C146.395 0.1551 146.481 0.098 146.575 0.059C146.67 0.0201 146.771 0 146.873 0H150.702C150.804 0 150.906 0.0201 151 0.059C151.094 0.098 151.18 0.1551 151.252 0.2272C151.324 0.2992 151.381 0.3847 151.42 0.4788C151.46 0.5729 151.48 0.6737 151.48 0.7756V28.8367C151.48 28.9385 151.46 29.0394 151.42 29.1335C151.381 29.2276 151.324 29.3131 151.252 29.3851C151.18 29.4571 151.094 29.5142 151 29.5532C150.906 29.5922 150.804 29.6122 150.702 29.6122H146.908C146.806 29.6122 146.705 29.5922 146.611 29.5532C146.516 29.5142 146.431 29.4571 146.358 29.3851C146.286 29.3131 146.229 29.2276 146.19 29.1335C146.151 29.0394 146.131 28.9385 146.131 28.8367V26.6298C146.135 25.939 145.98 25.2565 145.679 24.6346C144.555 22.3643 141.651 18.1622 134.868 15.5887C132.002 14.5321 129.318 13.0384 126.912 11.161C126.798 11.0683 126.66 11.0099 126.514 10.9927C126.369 10.9755 126.221 11.0002 126.089 11.0639C125.957 11.1276 125.846 11.2276 125.768 11.3523C125.691 11.4769 125.652 11.6209 125.654 11.7673V28.8367C125.654 29.0424 125.572 29.2396 125.426 29.3851C125.28 29.5305 125.083 29.6122 124.877 29.6122H121.047C120.841 29.6122 120.643 29.5305 120.497 29.3851C120.351 29.2396 120.27 29.0424 120.27 28.8367V0.7756C120.27 0.5699 120.351 0.3726 120.497 0.2272C120.643 0.0816996 120.841 0 121.047 0H124.771C124.925 0.0031 125.075 0.0525007 125.201 0.141701C125.327 0.231001 125.423 0.356001 125.477 0.500601C126.092 2.1645 128.65 7.5511 136.74 10.5546C139.668 11.623 142.39 13.1851 144.788 15.1727C144.901 15.27 145.039 15.3329 145.186 15.3541C145.334 15.3752 145.484 15.3537 145.619 15.292C145.755 15.2304 145.87 15.1312 145.95 15.0064C146.031 14.8815 146.074 14.7361 146.074 14.5875H146.095Z" fill="#070E38"/>
<path d="M156.227 26.7284C156.227 26.1577 156.396 25.5999 156.714 25.1256C157.032 24.6512 157.484 24.2816 158.012 24.0636C158.541 23.8455 159.122 23.7888 159.683 23.9007C160.244 24.0125 160.759 24.2878 161.163 24.6918C161.566 25.0958 161.841 25.6103 161.952 26.1701C162.063 26.73 162.004 27.31 161.784 27.8368C161.565 28.3636 161.193 28.8135 160.717 29.1295C160.241 29.4455 159.681 29.6134 159.109 29.6121C158.73 29.6121 158.355 29.5374 158.005 29.3924C157.654 29.2474 157.336 29.0349 157.068 28.767C156.801 28.4992 156.588 28.1812 156.444 27.8314C156.3 27.4816 156.226 27.1067 156.227 26.7284Z" fill="#070E38"/>
</g>
</svg>
