<svg width="186" height="35" viewBox="0 0 186 35" fill="none" xmlns="http://www.w3.org/2000/svg">
<mask id="mask0_64764_137" style="mask-type:luminance" maskUnits="userSpaceOnUse" x="0" y="0" width="186" height="35">
<path d="M186 0H0V35H186V0Z" fill="white"/>
</mask>
<g mask="url(#mask0_64764_137)">
<path d="M43.014 0.444092C43.251 0.444092 43.479 0.539195 43.647 0.708595C43.816 0.878095 43.912 1.10819 43.914 1.34889V34.0869C43.914 34.3279 43.82 34.5589 43.653 34.7299C43.486 34.9009 43.259 34.9979 43.022 34.9999H38.625C38.387 34.9979 38.16 34.9009 37.993 34.7299C37.826 34.5589 37.732 34.3279 37.732 34.0869V12.7908C37.386 13.0759 37.029 13.3501 36.661 13.6133C35.615 14.3536 34.552 14.9788 33.522 15.5875C32.491 16.1962 31.81 16.6733 30.999 17.1586C29.48 18.048 28.157 19.2444 27.114 20.6735C26.07 22.1026 25.327 23.734 24.93 25.4664C24.886 25.668 24.775 25.8482 24.615 25.9769C24.456 26.1055 24.258 26.1751 24.054 26.1738H19.86C19.656 26.1751 19.458 26.1055 19.299 25.9769C19.139 25.8482 19.028 25.668 18.984 25.4664C18.588 23.7318 17.844 22.0984 16.798 20.6678C15.753 19.2371 14.429 18.0398 12.907 17.1503C12.096 16.665 11.285 16.1304 10.384 15.5792C9.484 15.0281 8.291 14.3454 7.245 13.6051C6.877 13.3474 6.52 13.0732 6.174 12.7825V34.0869C6.174 34.3279 6.08 34.5589 5.913 34.7299C5.746 34.9009 5.519 34.9979 5.281 34.9999H0.891998C0.654998 34.9979 0.428002 34.9009 0.261002 34.7299C0.0940016 34.5589 0 34.3279 0 34.0869V1.35719C0 1.11499 0.0949999 0.882794 0.264 0.711494C0.433 0.540294 0.662001 0.444092 0.901001 0.444092H5.241C5.452 0.447092 5.656 0.525292 5.816 0.665192C5.976 0.805092 6.083 0.997591 6.117 1.20909C6.36 2.80489 7.285 6.53109 10.668 8.61219C11.561 9.14679 12.445 9.74729 13.418 10.3313C14.392 10.9153 15.341 11.45 16.266 12.108C18.155 13.3811 19.845 14.9338 21.28 16.7144C21.361 16.8188 21.464 16.9032 21.582 16.9612C21.7 17.0192 21.83 17.0493 21.961 17.0493C22.092 17.0493 22.222 17.0192 22.34 16.9612C22.458 16.9032 22.561 16.8188 22.643 16.7144C24.075 14.9315 25.762 13.376 27.648 12.0998C28.614 11.4418 29.619 10.8495 30.504 10.3231C31.388 9.79659 32.378 9.14679 33.246 8.61219C36.637 6.56399 37.562 2.85419 37.805 1.20909C37.839 0.997591 37.946 0.805092 38.106 0.665192C38.266 0.525292 38.47 0.447092 38.681 0.444092H43.014Z" fill="white"/>
<path d="M88.9794 17.2738C88.9794 26.7908 80.1604 34.548 69.3144 34.548C58.4674 34.548 49.6484 26.7991 49.6484 17.2738C49.6484 7.7485 58.4674 0 69.3144 0C80.1604 0 88.9794 7.7485 88.9794 17.2738ZM69.3144 6.2761C61.8824 6.2761 55.8384 11.2115 55.8384 17.2738C55.8384 23.3361 61.8824 28.2303 69.3144 28.2303C76.7454 28.2303 82.7974 23.295 82.7974 17.2409C82.7974 11.1868 76.7454 6.2761 69.3144 6.2761Z" fill="white"/>
<path d="M132.252 17.2738C132.252 26.7908 123.434 34.548 112.587 34.548C101.74 34.548 92.9219 26.7991 92.9219 17.2738C92.9219 7.7485 101.74 0 112.587 0C123.434 0 132.252 7.7485 132.252 17.2738ZM112.587 6.2761C105.156 6.2761 99.1039 11.2115 99.1039 17.2738C99.1039 23.3361 105.156 28.2303 112.587 28.2303C120.018 28.2303 126.062 23.295 126.062 17.2409C126.062 11.1868 119.994 6.2761 112.587 6.2761Z" fill="white"/>
<path d="M167.738 17.0188V0.9048C167.738 0.786 167.761 0.668301 167.806 0.558601C167.851 0.448801 167.916 0.348999 167.999 0.264999C168.082 0.180999 168.18 0.114301 168.289 0.0689011C168.397 0.0234011 168.513 0 168.63 0H173.027C173.145 0 173.261 0.0234011 173.369 0.0689011C173.477 0.114301 173.576 0.180999 173.658 0.264999C173.741 0.348999 173.807 0.448801 173.852 0.558601C173.897 0.668301 173.92 0.786 173.92 0.9048V33.643C173.92 33.762 173.897 33.879 173.852 33.989C173.807 34.099 173.741 34.199 173.658 34.283C173.576 34.367 173.477 34.433 173.369 34.479C173.261 34.524 173.145 34.548 173.027 34.548H168.671C168.554 34.548 168.438 34.524 168.329 34.479C168.221 34.433 168.123 34.367 168.04 34.283C167.957 34.199 167.891 34.099 167.846 33.989C167.802 33.879 167.778 33.762 167.778 33.643V31.068C167.783 30.262 167.605 29.4659 167.259 28.7403C165.969 26.0917 162.635 21.1892 154.847 18.1868C151.557 16.9541 148.475 15.2115 145.712 13.0212C145.581 12.913 145.423 12.8448 145.256 12.8248C145.089 12.8047 144.919 12.8335 144.767 12.9078C144.616 12.9822 144.488 13.0989 144.399 13.2443C144.311 13.3897 144.265 13.5577 144.268 13.7286V33.643C144.268 33.883 144.174 34.113 144.006 34.283C143.839 34.452 143.612 34.548 143.375 34.548H138.978C138.742 34.548 138.515 34.452 138.347 34.283C138.18 34.113 138.086 33.883 138.086 33.643V0.9048C138.086 0.6648 138.18 0.434699 138.347 0.264999C138.515 0.0952994 138.742 0 138.978 0H143.254C143.431 0.0036 143.603 0.0611985 143.748 0.165298C143.893 0.269498 144.003 0.4154 144.065 0.584C144.771 2.5253 147.708 8.8096 156.997 12.3138C160.358 13.5602 163.484 15.3826 166.237 17.7015C166.366 17.815 166.525 17.8884 166.694 17.9131C166.863 17.9377 167.036 17.9126 167.191 17.8407C167.347 17.7688 167.479 17.6531 167.571 17.5074C167.664 17.3617 167.713 17.1921 167.714 17.0188H167.738Z" fill="white"/>
<path d="M179.371 31.183C179.371 30.517 179.566 29.8666 179.931 29.3132C180.296 28.7597 180.815 28.3285 181.421 28.0741C182.028 27.8198 182.696 27.7536 183.34 27.8841C183.983 28.0146 184.575 28.3358 185.038 28.8071C185.502 29.2785 185.817 29.8787 185.945 30.532C186.072 31.185 186.005 31.862 185.752 32.476C185.5 33.091 185.073 33.616 184.527 33.984C183.98 34.353 183.338 34.549 182.681 34.547C182.246 34.547 181.815 34.46 181.413 34.291C181.01 34.122 180.645 33.874 180.338 33.562C180.03 33.249 179.787 32.878 179.621 32.47C179.455 32.062 179.37 31.625 179.371 31.183Z" fill="white"/>
</g>
</svg>
